<?xml version="1.0" encoding="utf-8"?>
<!-- Generator: Adobe Illustrator 22.0.1, SVG Export Plug-In . SVG Version: 6.00 Build 0)  -->
<svg version="1.1" id="Capa_1" xmlns="http://www.w3.org/2000/svg" xmlns:xlink="http://www.w3.org/1999/xlink" x="0px" y="0px"
	 viewBox="0 0 311.5 311.5" style="enable-background:new 0 0 311.5 311.5;" xml:space="preserve">
<style type="text/css">
	.st0{fill:#999999;}
	.st1{fill:#FFFFFF;}
</style>
<rect x="-13" y="-14" class="st0" width="354" height="354"/>
<g>
	<g>
		<path class="st1" d="M155.8,32.8c-81.7,0-148,66.3-148,148c0,35.6,12.6,68.3,33.5,93.8c3.2-25.9,29.1-47.8,65.4-58.2
			c13.2,12.3,30.4,19.8,49.1,19.8c18.3,0,35-7.1,48.2-18.9c36.6,11.3,61.9,34.5,62.7,61.4c23.1-26.1,37.1-60.4,37.1-98
			C303.8,99.1,237.5,32.8,155.8,32.8z M155.8,218.8c-9.4,0-18.3-2.6-26.3-7.1c-19-10.8-32.2-33-32.2-58.6
			c0-36.2,26.2-65.7,58.4-65.7c32.2,0,58.4,29.5,58.4,65.7c0,26-13.5,48.5-33,59.1C173.4,216.3,164.9,218.8,155.8,218.8z"/>
	</g>
</g>
</svg>
