<?xml version="1.0" encoding="utf-8"?>
<!-- Generator: Adobe Illustrator 22.0.1, SVG Export Plug-In . SVG Version: 6.00 Build 0)  -->
<svg version="1.1" id="Capa_1" xmlns="http://www.w3.org/2000/svg" xmlns:xlink="http://www.w3.org/1999/xlink" x="0px" y="0px"
	 viewBox="0 0 165 176.5" style="enable-background:new 0 0 165 176.5;" xml:space="preserve">
<style type="text/css">
	.st0{fill:#999999;}
	.st1{fill:#FFFFFF;}
</style>
<rect x="-2" class="st0" width="177" height="177"/>
<g>
	<g>
		<path class="st1" d="M82.4,23.4c-40.8,0-74,33.2-74,74c0,17.8,6.3,34.2,16.8,46.9c1.6-12.9,14.5-23.9,32.7-29.1
			c6.6,6.2,15.2,9.9,24.5,9.9c9.2,0,17.5-3.6,24.1-9.4c18.3,5.7,30.9,17.2,31.4,30.7c11.6-13.1,18.6-30.2,18.6-49
			C156.4,56.5,123.2,23.4,82.4,23.4z M82.4,116.4c-4.7,0-9.2-1.3-13.2-3.6c-9.5-5.4-16.1-16.5-16.1-29.3c0-18.1,13.1-32.8,29.2-32.8
			s29.2,14.8,29.2,32.8c0,13-6.8,24.2-16.5,29.6C91.2,115.2,86.9,116.4,82.4,116.4z"/>
	</g>
</g>
</svg>
